<svg width="1141" height="708" viewBox="0 0 1141 708" fill="none" xmlns="http://www.w3.org/2000/svg">
<rect y="69.0618" width="1141" height="638" fill="#C4AF82"/>
<path d="M444.294 293.967C438.623 301.094 438.611 307.341 441.832 310.98C445.053 314.619 449.086 312.917 454.757 305.789C460.428 298.662 463.615 291.291 460.394 287.651C457.173 284.012 449.965 286.84 444.294 293.967Z" fill="#583E33"/>
<path d="M521.471 323.205C521.471 334.11 517.323 340.83 510.752 344.916C504.052 349.083 494.641 350.63 483.958 350.63C473.275 350.63 463.865 349.083 457.164 344.916C450.593 340.83 446.446 334.11 446.446 323.205C446.446 301.231 463.315 283.556 483.958 283.556C504.602 283.556 521.471 301.231 521.471 323.205Z" fill="#F0E15A" stroke="#583E33" stroke-width="3"/>
<path d="M511.044 324.315C511.044 340.244 498.027 345.669 481.97 345.669C465.914 345.669 452.897 340.244 452.897 324.315C452.897 308.387 465.914 295.474 481.97 295.474C498.027 295.474 511.044 308.387 511.044 324.315Z" fill="#F5F5F5"/>
<ellipse cx="491.163" cy="320.324" rx="2.48489" ry="2.98186" fill="#56362D"/>
<ellipse cx="478.739" cy="326.784" rx="2.48489" ry="3.47884" transform="rotate(-90 478.739 326.784)" fill="#56362D"/>
<ellipse cx="468.799" cy="320.324" rx="2.48489" ry="2.98186" fill="#56362D"/>
<path fill-rule="evenodd" clip-rule="evenodd" d="M459.381 339.488C456.181 336.828 453.993 333.202 453.213 328.407C453.514 327.499 454.104 326.717 455.048 326.137C458.088 324.269 462.3 325.598 464.455 329.106C466.611 332.614 465.894 336.972 462.854 338.84C461.658 339.574 460.49 339.754 459.381 339.488Z" fill="#EAD5DF"/>
<path fill-rule="evenodd" clip-rule="evenodd" d="M502.868 340.744C502.139 340.655 501.387 340.386 500.617 339.913C497.353 337.907 496.454 333.437 498.609 329.929C500.764 326.422 505.158 325.204 508.423 327.21C509.481 327.86 510.14 328.723 510.475 329.711C509.36 334.632 506.66 338.227 502.868 340.744Z" fill="#EAD5DF"/>
<path d="M520.58 293.967C526.252 301.095 525.956 307.688 522.356 311.756C518.756 315.824 514.557 314.309 508.886 307.181C503.215 300.054 500.194 292.495 503.794 288.427C507.394 284.36 514.909 286.84 520.58 293.967Z" fill="#583E33"/>
<mask id="path-11-outside-1_36_2" maskUnits="userSpaceOnUse" x="336" y="277.801" width="81" height="74" fill="black">
<rect fill="white" x="336" y="277.801" width="81" height="74"/>
<path fill-rule="evenodd" clip-rule="evenodd" d="M366.04 291.242C365.795 290.461 365.475 289.691 365.076 288.942C361.588 282.381 353.441 279.89 346.88 283.378C340.319 286.867 337.828 295.014 341.317 301.575C342.128 303.1 343.191 304.406 344.427 305.467C340.985 310.359 339 316.112 339 322.268C339 340.055 355.565 348.062 376 348.062C396.435 348.062 413 340.055 413 322.268C413 316.462 411.235 311.015 408.146 306.31C409.551 305.195 410.755 303.778 411.651 302.092C415.139 295.531 412.648 287.385 406.087 283.896C399.526 280.407 391.379 282.898 387.891 289.459C387.535 290.129 387.241 290.815 387.008 291.511C383.53 290.569 379.833 290.062 376 290.062C372.549 290.062 369.209 290.473 366.04 291.242Z"/>
</mask>
<path fill-rule="evenodd" clip-rule="evenodd" d="M366.04 291.242C365.795 290.461 365.475 289.691 365.076 288.942C361.588 282.381 353.441 279.89 346.88 283.378C340.319 286.867 337.828 295.014 341.317 301.575C342.128 303.1 343.191 304.406 344.427 305.467C340.985 310.359 339 316.112 339 322.268C339 340.055 355.565 348.062 376 348.062C396.435 348.062 413 340.055 413 322.268C413 316.462 411.235 311.015 408.146 306.31C409.551 305.195 410.755 303.778 411.651 302.092C415.139 295.531 412.648 287.385 406.087 283.896C399.526 280.407 391.379 282.898 387.891 289.459C387.535 290.129 387.241 290.815 387.008 291.511C383.53 290.569 379.833 290.062 376 290.062C372.549 290.062 369.209 290.473 366.04 291.242Z" fill="#F3F0C7"/>
<path d="M366.04 291.242L363.178 292.141L364.019 294.82L366.748 294.157L366.04 291.242ZM365.076 288.942L362.428 290.35L362.428 290.35L365.076 288.942ZM346.88 283.378L345.471 280.73L345.471 280.73L346.88 283.378ZM341.317 301.575L338.668 302.983L338.668 302.983L341.317 301.575ZM344.427 305.467L346.88 307.194L348.449 304.966L346.381 303.191L344.427 305.467ZM408.146 306.31L406.28 303.961L404.134 305.666L405.638 307.957L408.146 306.31ZM411.651 302.092L409.002 300.684L409.002 300.684L411.651 302.092ZM406.087 283.896L407.496 281.247L407.496 281.247L406.087 283.896ZM387.891 289.459L385.242 288.051L385.242 288.051L387.891 289.459ZM387.008 291.511L386.223 294.407L388.952 295.146L389.852 292.465L387.008 291.511ZM368.903 290.343C368.602 289.387 368.211 288.446 367.725 287.533L362.428 290.35C362.739 290.935 362.988 291.535 363.178 292.141L368.903 290.343ZM367.725 287.533C363.459 279.509 353.495 276.463 345.471 280.73L348.288 286.027C353.386 283.316 359.717 285.252 362.428 290.35L367.725 287.533ZM345.471 280.73C337.447 284.996 334.401 294.959 338.668 302.983L343.965 300.166C341.255 295.068 343.19 288.738 348.288 286.027L345.471 280.73ZM338.668 302.983C339.657 304.844 340.958 306.443 342.473 307.744L346.381 303.191C345.424 302.369 344.598 301.357 343.965 300.166L338.668 302.983ZM342 322.268C342 316.775 343.767 311.618 346.88 307.194L341.974 303.741C338.202 309.1 336 315.449 336 322.268H342ZM376 345.062C366.108 345.062 357.485 343.113 351.438 339.298C345.541 335.577 342 330.049 342 322.268H336C336 332.274 340.742 339.644 348.236 344.372C355.581 349.007 365.458 351.062 376 351.062V345.062ZM410 322.268C410 330.049 406.459 335.577 400.562 339.298C394.515 343.113 385.892 345.062 376 345.062V351.062C386.542 351.062 396.419 349.007 403.764 344.372C411.258 339.644 416 332.274 416 322.268H410ZM405.638 307.957C408.428 312.205 410 317.086 410 322.268H416C416 315.838 414.042 309.824 410.654 304.664L405.638 307.957ZM409.002 300.684C408.303 301.998 407.368 303.097 406.28 303.961L410.012 308.66C411.734 307.292 413.206 305.557 414.299 303.501L409.002 300.684ZM404.679 286.545C409.777 289.256 411.713 295.586 409.002 300.684L414.299 303.501C418.566 295.477 415.52 285.514 407.496 281.247L404.679 286.545ZM390.54 290.868C393.25 285.769 399.581 283.834 404.679 286.545L407.496 281.247C399.472 276.981 389.508 280.027 385.242 288.051L390.54 290.868ZM389.852 292.465C390.033 291.925 390.261 291.391 390.54 290.868L385.242 288.051C384.808 288.867 384.449 289.705 384.163 290.557L389.852 292.465ZM376 293.062C379.568 293.062 383.002 293.534 386.223 294.407L387.792 288.615C384.059 287.604 380.098 287.062 376 287.062V293.062ZM366.748 294.157C369.685 293.444 372.788 293.062 376 293.062V287.062C372.311 287.062 368.733 287.501 365.333 288.327L366.748 294.157Z" fill="#A89D64" mask="url(#path-11-outside-1_36_2)"/>
<circle cx="353.197" cy="295.258" r="13.4548" transform="rotate(-28 353.197 295.258)" fill="#F3F0C7"/>
<ellipse cx="352.929" cy="295.443" rx="8.10511" ry="8.10511" transform="rotate(-28 352.929 295.443)" fill="#CABDF4"/>
<ellipse cx="399.771" cy="295.776" rx="13.4548" ry="13.4548" transform="rotate(28 399.771 295.776)" fill="#F3F0C7"/>
<ellipse cx="399.852" cy="295.861" rx="8.10511" ry="8.10511" transform="rotate(28 399.852 295.861)" fill="#CABDF4"/>
<path d="M413 322.268C413 340.055 396.435 348.062 376 348.062C355.565 348.062 339 340.055 339 322.268C339 304.481 355.565 290.062 376 290.062C396.435 290.062 413 304.481 413 322.268Z" fill="#F3F0C7"/>
<path fill-rule="evenodd" clip-rule="evenodd" d="M354.295 344.169C351.053 342.769 348.208 340.982 345.878 338.79C344.323 335.771 344.452 332.576 346.378 331.125C348.66 329.405 352.602 330.787 355.182 334.21C357.762 337.634 358.003 341.804 355.721 343.524C355.296 343.844 354.815 344.057 354.295 344.169Z" fill="#E3A691"/>
<path fill-rule="evenodd" clip-rule="evenodd" d="M397.965 344.055C397.459 343.941 396.989 343.731 396.574 343.419C394.292 341.699 394.533 337.529 397.113 334.105C399.693 330.681 403.635 329.3 405.917 331.02C407.77 332.416 407.96 335.425 406.587 338.34C404.235 340.678 401.317 342.577 397.965 344.055Z" fill="#E3A691"/>
<path fill-rule="evenodd" clip-rule="evenodd" d="M384.273 323.487C385.814 320.652 388.891 317.977 392.898 316.332C395.664 315.198 398.458 314.724 400.939 314.846C402.578 317.658 402.664 321.364 400.854 324.534C398.22 329.148 392.569 330.881 388.233 328.406C386.284 327.293 384.932 325.521 384.273 323.487Z" fill="white"/>
<path d="M383.725 321.061L384.175 323.544C389.219 315.778 397.535 314.589 401.063 314.966L400.162 313.385C392.056 313.205 385.826 318.427 383.725 321.061Z" fill="black" stroke="black" stroke-width="0.5"/>
<path fill-rule="evenodd" clip-rule="evenodd" d="M400.989 314.932C402.579 317.733 402.645 321.396 400.854 324.534C399.891 326.22 398.526 327.521 396.97 328.373C394.959 327.512 393.477 324.547 393.477 321.02C393.477 318.918 394.003 317.016 394.855 315.639C396.955 315.01 399.025 314.755 400.915 314.845C400.94 314.874 400.964 314.903 400.989 314.932Z" fill="black"/>
<path fill-rule="evenodd" clip-rule="evenodd" d="M368.192 323.487C366.651 320.652 363.575 317.977 359.567 316.332C356.802 315.198 354.008 314.724 351.527 314.846C349.888 317.658 349.802 321.364 351.612 324.534C354.246 329.148 359.896 330.881 364.233 328.406C366.182 327.293 367.533 325.521 368.192 323.487Z" fill="white"/>
<path d="M368.741 321.061L368.291 323.544C363.247 315.778 354.931 314.589 351.403 314.966L352.304 313.385C360.41 313.205 366.64 318.427 368.741 321.061Z" fill="black" stroke="black" stroke-width="0.5"/>
<path fill-rule="evenodd" clip-rule="evenodd" d="M360.952 329.478C362.082 329.35 363.195 328.998 364.233 328.406C366.182 327.294 367.533 325.521 368.192 323.488C368.192 323.488 368.192 323.487 368.192 323.487C366.812 320.947 364.2 318.537 360.791 316.88C359.589 318.257 358.805 320.526 358.805 323.09C358.805 325.769 359.66 328.123 360.952 329.478Z" fill="black"/>
<path d="M377.434 337.738C377.907 338.752 380.226 340.897 385.714 341.36" stroke="#47463B" stroke-width="2.5" stroke-linecap="round"/>
<path d="M377.434 337.738C376.961 338.752 374.643 340.897 369.154 341.36" stroke="#47463B" stroke-width="2.5" stroke-linecap="round"/>
<path d="M378.209 295.971C381.688 298.552 387.82 305.444 384.524 312.361C381.866 304.954 370.462 301.308 373.169 302.226" stroke="#A89D64" stroke-width="2.5" stroke-linecap="round"/>
<path d="M372.001 301.706C374.533 303.527 379.042 308.332 376.817 312.978C374.78 307.887 366.566 305.194 368.516 305.869" stroke="#A89D64" stroke-width="2.5" stroke-linecap="round"/>
<line x1="603.957" y1="34.5525" x2="567.081" y2="93.2536" stroke="#D9D9D9" stroke-width="12"/>
<circle cx="607.907" cy="27.0928" r="27.0928" fill="#CF5443"/>
</svg>
