<svg width="118" height="300" viewBox="0 0 118 300" fill="none" xmlns="http://www.w3.org/2000/svg">
<path fill-rule="evenodd" clip-rule="evenodd" d="M3 74.5H22H97H116L97 291.5C97 295.918 80.2107 299.5 59.5 299.5C38.7893 299.5 22 295.918 22 291.5L3 74.5Z" fill="#FBE9D1"/>
<path fill-rule="evenodd" clip-rule="evenodd" d="M18.6597 253.35L17.6635 241.972C18.3816 241.668 19.1712 241.5 20.0001 241.5C23.3138 241.5 26.0001 244.186 26.0001 247.5C26.0001 250.814 23.3138 253.5 20.0001 253.5C19.5393 253.5 19.0906 253.448 18.6597 253.35ZM21.0292 280.412L19.9862 268.5C19.9908 268.5 19.9954 268.5 19.9999 268.5C23.3137 268.5 25.9999 271.186 25.9999 274.5C25.9999 277.463 23.8525 279.924 21.0292 280.412ZM98.2918 276.747L97.318 287.869C95.3506 286.884 93.9999 284.85 93.9999 282.5C93.9999 279.78 95.8102 277.482 98.2918 276.747ZM100.064 256.5L99.0208 268.421C96.1728 267.953 93.9999 265.48 93.9999 262.5C93.9999 259.186 96.6862 256.5 99.9999 256.5C100.021 256.5 100.043 256.5 100.064 256.5ZM101.811 236.554L100.765 248.495C97.5604 248.372 94.9999 245.735 94.9999 242.5C94.9999 239.186 97.6862 236.5 101 236.5C101.275 236.5 101.546 236.519 101.811 236.554Z" fill="#3A2F23"/>
<circle cx="29" cy="287.5" r="6" fill="#3A2F23"/>
<circle cx="29" cy="260.5" r="6" fill="#3A2F23"/>
<circle cx="38" cy="275.5" r="6" fill="#3A2F23"/>
<circle cx="32" cy="242.5" r="6" fill="#3A2F23"/>
<circle cx="42" cy="292.5" r="6" fill="#3A2F23"/>
<circle cx="50" cy="280.5" r="6" fill="#3A2F23"/>
<circle cx="51" cy="265.5" r="6" fill="#3A2F23"/>
<circle cx="66" cy="291.5" r="6" fill="#3A2F23"/>
<path d="M69 252.5C69 255.814 66.3137 258.5 63 258.5C59.6863 258.5 57 255.814 57 252.5C57 249.186 59.6863 246.5 63 246.5C66.3137 246.5 69 249.186 69 252.5Z" fill="#3A2F23"/>
<circle cx="49" cy="247.5" r="6" fill="#3A2F23"/>
<circle cx="66" cy="275.5" r="6" fill="#3A2F23"/>
<circle cx="86" cy="253.5" r="6" fill="#3A2F23"/>
<circle cx="69" cy="238.5" r="6" fill="#3A2F23"/>
<circle cx="84" cy="287.5" r="6" fill="#3A2F23"/>
<circle cx="88" cy="272.5" r="6" fill="#3A2F23"/>
<circle cx="77" cy="264.5" r="6" fill="#3A2F23"/>
<circle cx="86" cy="238.5" r="6" fill="#3A2F23"/>
<ellipse cx="59" cy="75" rx="59" ry="13.5" fill="#566580"/>
<path d="M41.5294 2.5H26L32.4706 72.5H48L41.5294 2.5Z" fill="#E0EFF2"/>
<ellipse cx="40.2451" cy="72.5" rx="7.75499" ry="2.5" fill="#E0EFF2"/>
<ellipse cx="33.755" cy="2.5" rx="7.75499" ry="2.5" fill="#E0EFF2"/>
</svg>
