<svg width="118" height="300" viewBox="0 0 118 300" fill="none" xmlns="http://www.w3.org/2000/svg">
<path d="M3 74.5H116L97 291.5C97 295.918 80.2107 299.5 59.5 299.5C38.7893 299.5 22 295.918 22 291.5L3 74.5Z" fill="white"/>
<mask id="mask0_645_278" style="mask-type:alpha" maskUnits="userSpaceOnUse" x="3" y="74" width="113" height="226">
<path d="M3 74.5H116L97 291.5C97 295.918 80.2107 299.5 59.5 299.5C38.7893 299.5 22 295.918 22 291.5L3 74.5Z" fill="white"/>
</mask>
<g mask="url(#mask0_645_278)">
<rect x="-22" y="232" width="158" height="124" fill="#D45A52"/>
<path d="M62.7431 232.375H9C17.8954 243.411 48.5352 244.593 62.7431 243.805V232.375Z" fill="#D45A52"/>
<path d="M56.2569 232.375H110C101.105 243.411 70.4648 244.593 56.2569 243.805V232.375Z" fill="#D45A52"/>
<path d="M110 214.101V232.375H9V213C17.349 223.256 44.665 225.002 60 224.565C74.7692 224.986 100.652 223.382 110 214.101Z" fill="#D45A52"/>
<rect x="-19" y="37" width="158" height="113" fill="#9AAB3D"/>
<path d="M61.9358 149.25H5C14.4239 161.354 46.8838 162.65 61.9358 161.786V149.25Z" fill="#9AAB3D"/>
<path d="M55.0642 149.25H112C102.576 161.354 70.1162 162.65 55.0642 161.786V149.25Z" fill="#9AAB3D"/>
<path d="M112 129.207V149.25H5V128C13.8449 139.249 42.7837 141.163 59.0297 140.684C74.6763 141.146 102.096 139.387 112 129.207Z" fill="#9AAB3D"/>
</g>
<circle cx="29" cy="287.5" r="6" fill="#3A2F23"/>
<circle cx="29" cy="260.5" r="6" fill="#3A2F23"/>
<circle cx="38" cy="275.5" r="6" fill="#3A2F23"/>
<circle cx="32" cy="242.5" r="6" fill="#3A2F23"/>
<circle cx="42" cy="292.5" r="6" fill="#3A2F23"/>
<circle cx="50" cy="280.5" r="6" fill="#3A2F23"/>
<circle cx="51" cy="265.5" r="6" fill="#3A2F23"/>
<circle cx="66" cy="291.5" r="6" fill="#3A2F23"/>
<path d="M69 252.5C69 255.814 66.3137 258.5 63 258.5C59.6863 258.5 57 255.814 57 252.5C57 249.186 59.6863 246.5 63 246.5C66.3137 246.5 69 249.186 69 252.5Z" fill="#3A2F23"/>
<circle cx="49" cy="247.5" r="6" fill="#3A2F23"/>
<circle cx="66" cy="275.5" r="6" fill="#3A2F23"/>
<circle cx="86" cy="253.5" r="6" fill="#3A2F23"/>
<circle cx="69" cy="238.5" r="6" fill="#3A2F23"/>
<circle cx="84" cy="287.5" r="6" fill="#3A2F23"/>
<circle cx="88" cy="272.5" r="6" fill="#3A2F23"/>
<circle cx="77" cy="264.5" r="6" fill="#3A2F23"/>
<circle cx="86" cy="238.5" r="6" fill="#3A2F23"/>
<path fill-rule="evenodd" clip-rule="evenodd" d="M18.6595 253.35L17.6633 241.972C18.3815 241.668 19.1711 241.5 19.9999 241.5C23.3137 241.5 25.9999 244.186 25.9999 247.5C25.9999 250.814 23.3137 253.5 19.9999 253.5C19.5392 253.5 19.0905 253.448 18.6595 253.35ZM21.0291 280.412L19.9861 268.5C19.9906 268.5 19.9952 268.5 19.9998 268.5C23.3135 268.5 25.9998 271.186 25.9998 274.5C25.9998 277.463 23.8524 279.924 21.0291 280.412ZM98.2917 276.747L97.3178 287.869C95.3505 286.884 93.9998 284.85 93.9998 282.5C93.9998 279.78 95.8101 277.482 98.2917 276.747ZM100.064 256.5L99.0207 268.421C96.1727 267.953 93.9998 265.48 93.9998 262.5C93.9998 259.186 96.6861 256.5 99.9998 256.5C100.021 256.5 100.043 256.5 100.064 256.5ZM101.811 236.554L100.765 248.495C97.5603 248.372 94.9998 245.735 94.9998 242.5C94.9998 239.186 97.6861 236.5 101 236.5C101.275 236.5 101.546 236.519 101.811 236.554Z" fill="#3A2F23"/>
<ellipse cx="59" cy="75" rx="59" ry="13.5" fill="#566580"/>
<path d="M41.5294 2.5H26L32.4706 72.5H48L41.5294 2.5Z" fill="#E0EFF2"/>
<ellipse cx="40.2451" cy="72.5" rx="7.75499" ry="2.5" fill="#E0EFF2"/>
<ellipse cx="33.755" cy="2.5" rx="7.75499" ry="2.5" fill="#E0EFF2"/>
</svg>
