<svg width="93" height="72" viewBox="0 0 93 72" fill="none" xmlns="http://www.w3.org/2000/svg">
<path d="M8.29384 12.967C2.62268 20.0943 2.61101 26.3406 5.83184 29.98C9.05267 33.6193 13.0857 31.9168 18.7568 24.7895C24.428 17.6621 27.6151 10.2907 24.3942 6.65136C21.1734 3.01203 13.965 5.83962 8.29384 12.967Z" fill="#583E33"/>
<path d="M85.4709 42.2054C85.4709 53.1101 81.3234 59.8297 74.7523 63.916C68.0518 68.0827 58.6414 69.6294 47.9583 69.6294C37.2751 69.6294 27.8647 68.0827 21.1642 63.916C14.5931 59.8297 10.4456 53.1101 10.4456 42.2054C10.4456 20.2311 27.3149 2.55566 47.9583 2.55566C68.6016 2.55566 85.4709 20.2311 85.4709 42.2054Z" fill="#F0E15A" stroke="#583E33" stroke-width="3"/>
<path d="M75.0435 43.3153C75.0435 59.2438 62.027 64.6688 45.9704 64.6688C29.9137 64.6688 16.8972 59.2438 16.8972 43.3153C16.8972 27.3867 29.9137 14.4741 45.9704 14.4741C62.027 14.4741 75.0435 27.3867 75.0435 43.3153Z" fill="#F5F5F5"/>
<ellipse cx="55.1634" cy="39.3237" rx="2.48489" ry="2.98186" fill="#56362D"/>
<ellipse cx="42.7388" cy="45.7844" rx="2.48489" ry="3.47884" transform="rotate(-90 42.7388 45.7844)" fill="#56362D"/>
<ellipse cx="32.7993" cy="39.3237" rx="2.48489" ry="2.98186" fill="#56362D"/>
<path fill-rule="evenodd" clip-rule="evenodd" d="M23.3813 58.4883C20.1809 55.8281 17.993 52.2016 17.2132 47.4073C17.5139 46.4993 18.1041 45.717 19.0481 45.137C22.0881 43.2689 26.2999 44.5982 28.4554 48.1059C30.6108 51.6137 29.8937 55.9717 26.8536 57.8397C25.6585 58.5742 24.4901 58.7538 23.3813 58.4883Z" fill="#EAD5DF"/>
<path fill-rule="evenodd" clip-rule="evenodd" d="M66.8683 59.7441C66.1391 59.6549 65.3865 59.3858 64.6172 58.9131C61.3526 56.907 60.4535 52.4372 62.6089 48.9295C64.7644 45.4217 69.1582 44.2043 72.4228 46.2103C73.4808 46.8605 74.1401 47.7227 74.4747 48.7108C73.3596 53.6324 70.6604 57.2269 66.8683 59.7441Z" fill="#EAD5DF"/>
<path d="M84.5804 12.9676C90.2516 20.095 89.9559 26.6885 86.356 30.7562C82.7561 34.8238 78.5572 33.3089 72.886 26.1815C67.2148 19.0542 64.1937 11.4952 67.7936 7.42758C71.3935 3.35992 78.9092 5.84028 84.5804 12.9676Z" fill="#583E33"/>
</svg>
