<svg width="985" height="138" viewBox="0 0 985 138" fill="none" xmlns="http://www.w3.org/2000/svg">
<path d="M97.5035 2.07848L5.7035 129.578C3.32217 132.886 5.68568 137.5 9.76118 137.5H525.5C528.261 137.5 530.5 135.261 530.5 132.5V5C530.5 2.23858 528.261 0 525.5 0H101.561C99.9531 0 98.4431 0.773452 97.5035 2.07848Z" fill="#B9CBAC"/>
<path d="M886.997 2.07848L978.797 129.578C981.178 132.886 978.814 137.5 974.739 137.5H459C456.239 137.5 454 135.261 454 132.5V5C454 2.23858 456.239 0 459 0H882.939C884.547 0 886.057 0.773452 886.997 2.07848Z" fill="#B9CBAC"/>
</svg>
