<svg width="287" height="158" viewBox="0 0 287 158" fill="none" xmlns="http://www.w3.org/2000/svg">
<path d="M1.88783 52.1691C12.1969 29.7054 14.494 10.5177 14.3539 3.73182C22.3098 6.20283 23.5518 2.70224 23.1783 0.643066C62.2855 13.4474 112.776 16.0868 133.132 15.806C133.356 17.2662 148.727 19.9712 156.384 21.1412C154.077 20.9209 148.619 26.2609 146.03 29.1163C147.688 27.9312 158.991 32.0435 164.648 34.3386C164.312 49.7262 167.496 56.849 169.13 58.487C174.845 58.1501 173.659 51.9819 172.352 48.94C174.817 23.6683 183.464 34.3854 187.479 42.9028C191.289 45.9354 188.319 53.3391 186.358 56.6618L187.479 57.5042C197.564 56.6057 212.785 39.5333 219.135 31.1094C223.103 29.7054 231.573 26.8413 233.702 26.6167C235.831 26.392 237.297 21.7496 237.764 19.4564C238.184 6.96097 244.067 8.78615 245.467 9.48814C246.588 10.0497 250.697 17.5844 252.611 21.2816C253.507 24.4265 246.355 29.1438 242.666 31.1094C239.08 38.2978 243.04 42.9028 245.467 44.3068C244.683 46.1039 237.297 49.0803 233.702 50.3439C234.598 60.6772 228.472 83.0099 225.298 92.8845C202.326 110.182 206.482 126.954 211.431 133.179C219.499 147.892 217.594 153.536 215.633 154.519C215.633 155.128 214.204 155.333 208.489 151.29C202.775 147.247 200.879 137.905 200.645 133.74C192.914 124.53 165.768 129.903 153.162 133.74C131.536 130.932 123.701 148.108 122.487 157.046C118.341 156.597 114.316 154.519 112.822 153.536C104.754 127.591 94.9869 131.868 91.1117 137.25C85.5089 131.634 79.1591 122.181 76.6846 118.156C63.35 119.392 35.7378 109.498 23.5985 104.397C6.11791 81.2596 1.84114 59.9378 1.88783 52.1691Z" fill="#DAFBCB"/>
<rect x="7.80103" y="47.0352" width="5.98413" height="27.2693" fill="#D9D9D9"/>
<ellipse cx="10.793" cy="47.4615" rx="9.83106" ry="9.79992" fill="#CF5443"/>
<rect x="224.422" y="44.2585" width="5.98413" height="27.2693" fill="#D9D9D9"/>
<ellipse cx="227.415" cy="44.6849" rx="9.83106" ry="9.79992" fill="#CF5443"/>
<rect x="160.565" y="29.6101" width="5.98413" height="27.2693" fill="#D9D9D9"/>
<ellipse cx="163.558" cy="30.0365" rx="9.83106" ry="9.79992" fill="#CF5443"/>
<path d="M14.6444 74.7783C14.1262 74.1319 13.1821 74.0281 12.5358 74.5463C11.8895 75.0645 11.7856 76.0086 12.3038 76.6549L14.6444 74.7783ZM143.253 106.362L143.572 107.828C143.673 107.806 143.771 107.774 143.865 107.732L143.253 106.362ZM157.983 114.101L157.347 115.46C157.556 115.558 157.785 115.606 158.016 115.601L157.983 114.101ZM227.914 68.6856C227.486 67.9763 226.564 67.7481 225.855 68.1761L214.295 75.1499C213.586 75.5778 213.358 76.4997 213.786 77.2091C214.214 77.9184 215.136 78.1465 215.845 77.7186L226.12 71.5197L232.319 81.7946C232.747 82.5039 233.669 82.732 234.378 82.3041C235.087 81.8761 235.316 80.9542 234.888 80.2448L227.914 68.6856ZM12.3038 76.6549C13.0788 77.6215 13.951 78.6245 14.9187 79.6541L17.1047 77.5995C16.1864 76.6225 15.3663 75.6787 14.6444 74.7783L12.3038 76.6549ZM20.6794 85.0906C22.5565 86.6806 24.6353 88.2951 26.9131 89.9035L28.6435 87.4528C26.4356 85.8939 24.4266 84.3331 22.6185 82.8015L20.6794 85.0906ZM33.5122 94.189C35.6745 95.4808 37.9701 96.7503 40.3977 97.9803L41.7536 95.3042C39.3881 94.1057 37.1535 92.8698 35.0508 91.6136L33.5122 94.189ZM47.5106 101.295C49.8445 102.293 52.2782 103.248 54.811 104.15L55.8171 101.323C53.343 100.443 50.9669 99.5099 48.6896 98.5367L47.5106 101.295ZM62.2692 106.557C64.7207 107.269 67.252 107.929 69.8624 108.528L70.5335 105.604C67.9791 105.018 65.5031 104.372 63.1061 103.676L62.2692 106.557ZM77.5375 110.068C80.0553 110.502 82.6384 110.878 85.286 111.192L85.6387 108.213C83.0436 107.906 80.513 107.536 78.0472 107.111L77.5375 110.068ZM93.0797 111.913C95.633 112.084 98.2406 112.196 100.902 112.244L100.957 109.245C98.3438 109.198 95.7849 109.087 93.2804 108.919L93.0797 111.913ZM108.712 112.202C111.272 112.129 113.877 111.997 116.527 111.802L116.307 108.81C113.701 109.001 111.141 109.131 108.627 109.203L108.712 112.202ZM124.317 111.06C126.854 110.764 129.429 110.411 132.043 109.997L131.574 107.034C129 107.441 126.465 107.789 123.97 108.08L124.317 111.06ZM139.725 108.628C140.999 108.376 142.281 108.109 143.572 107.828L142.934 104.897C141.661 105.174 140.397 105.436 139.142 105.685L139.725 108.628ZM143.865 107.732C144.919 107.261 146.006 106.754 147.1 106.218L145.781 103.524C144.72 104.043 143.665 104.536 142.641 104.993L143.865 107.732ZM153.413 102.803C155.679 101.436 157.773 99.9791 159.364 98.5233L157.338 96.3104C155.954 97.5777 154.046 98.9172 151.863 100.235L153.413 102.803ZM161.391 90.4337C160.036 88.9965 157.531 88.103 154.047 87.564L153.588 90.5288C156.999 91.0563 158.597 91.8433 159.208 92.4916L161.391 90.4337ZM146.849 86.963C145.724 86.9268 144.527 86.9083 143.253 86.9083V89.9083C144.498 89.9083 145.663 89.9264 146.752 89.9615L146.849 86.963ZM143.253 86.9083C141.578 86.9083 140.057 86.9539 138.681 87.0428L138.874 90.0366C140.176 89.9525 141.632 89.9083 143.253 89.9083V86.9083ZM129.405 89.2719C128.565 89.8263 127.904 90.5277 127.53 91.4C127.152 92.2814 127.125 93.2029 127.328 94.087C127.716 95.7701 128.963 97.4358 130.511 98.9874L132.635 96.8689C131.184 95.4139 130.444 94.2466 130.252 93.4137C130.166 93.0398 130.201 92.7825 130.287 92.5825C130.377 92.3732 130.581 92.0903 131.058 91.7755L129.405 89.2719ZM137.711 104.66C140.081 106.243 142.704 107.824 145.395 109.335L146.865 106.72C144.223 105.236 141.668 103.696 139.377 102.165L137.711 104.66ZM153.32 113.517C154.697 114.202 156.047 114.852 157.347 115.46L158.618 112.742C157.34 112.145 156.01 111.504 154.655 110.831L153.32 113.517ZM158.016 115.601C159.405 115.57 160.897 115.493 162.476 115.365L162.233 112.375C160.71 112.498 159.275 112.572 157.949 112.602L158.016 115.601ZM171.321 114.216C174.11 113.724 177.03 113.09 180.013 112.292L179.238 109.394C176.342 110.168 173.508 110.784 170.8 111.262L171.321 114.216ZM188.513 109.604C191.264 108.59 194.019 107.427 196.727 106.099L195.406 103.406C192.798 104.685 190.139 105.808 187.476 106.788L188.513 109.604ZM204.52 101.693C207.018 100.071 209.426 98.2765 211.699 96.295L209.727 94.0339C207.57 95.9151 205.275 97.6255 202.886 99.1775L204.52 101.693ZM217.998 89.8508C219.891 87.5619 221.612 85.0854 223.117 82.409L220.502 80.9385C219.089 83.4519 217.471 85.7813 215.686 87.9388L217.998 89.8508ZM226.808 74.1646C227.289 72.7602 227.716 71.3126 228.086 69.8207L225.173 69.1002C224.825 70.5072 224.423 71.8707 223.97 73.1918L226.808 74.1646Z" fill="#626262"/>
<path d="M165.902 58.2395C165.483 58.9543 165.723 59.8732 166.438 60.292L178.087 67.1156C178.801 67.5343 179.72 67.2943 180.139 66.5795C180.558 65.8647 180.318 64.9458 179.603 64.527L169.249 58.4616L175.314 48.1073C175.733 47.3925 175.493 46.4736 174.778 46.0549C174.063 45.6362 173.144 45.8762 172.726 46.591L165.902 58.2395ZM167.575 60.449C168.958 60.0878 170.306 59.7504 171.622 59.4356L170.923 56.518C169.588 56.8377 168.219 57.1802 166.817 57.5464L167.575 60.449ZM179.694 57.7034C182.586 57.16 185.286 56.7424 187.806 56.4365L187.444 53.4584C184.855 53.7727 182.09 54.2006 179.14 54.755L179.694 57.7034ZM195.976 55.7982C198.999 55.7091 201.68 55.8148 204.058 56.0724L204.381 53.0899C201.851 52.8157 199.032 52.7068 195.888 52.7995L195.976 55.7982ZM211.861 57.75C214.815 58.7869 216.957 60.1321 218.516 61.5466L220.532 59.3248C218.652 57.6189 216.155 56.0775 212.855 54.9193L211.861 57.75ZM222.447 67.8052C222.748 68.8698 222.859 69.7881 222.897 70.4306C222.915 70.7512 222.915 71.001 222.911 71.1633C222.909 71.2444 222.906 71.3034 222.904 71.3382C222.903 71.3556 222.902 71.367 222.902 71.372C222.901 71.3745 222.901 71.3754 222.901 71.3747C222.901 71.3744 222.901 71.3736 222.902 71.3725C222.902 71.3719 222.902 71.3712 222.902 71.3704C222.902 71.37 222.902 71.3696 222.902 71.3691C222.902 71.3689 222.902 71.3686 222.902 71.3685C222.902 71.3681 222.902 71.3677 224.395 71.5099C225.888 71.6522 225.888 71.6518 225.889 71.6514C225.889 71.6513 225.889 71.6509 225.889 71.6506C225.889 71.65 225.889 71.6495 225.889 71.6488C225.889 71.6476 225.889 71.6463 225.889 71.6449C225.889 71.642 225.89 71.6388 225.89 71.635C225.891 71.6276 225.891 71.6185 225.892 71.6077C225.894 71.5861 225.896 71.5577 225.898 71.5229C225.902 71.4534 225.907 71.358 225.91 71.239C225.916 71.0011 225.916 70.6678 225.892 70.257C225.844 69.4366 225.704 68.2986 225.334 66.9898L222.447 67.8052Z" fill="#626262"/>
<path d="M31.936 76.288C30.528 76.288 29.304 76.056 28.264 75.592C27.224 75.128 26.384 74.496 25.744 73.696L27.832 71.392C28.44 72.064 29.104 72.56 29.824 72.88C30.56 73.2 31.304 73.36 32.056 73.36C32.92 73.36 33.576 73.168 34.024 72.784C34.472 72.4 34.696 71.848 34.696 71.128C34.696 70.536 34.52 70.088 34.168 69.784C33.832 69.48 33.256 69.264 32.44 69.136L30.688 68.848C29.184 68.592 28.096 68.04 27.424 67.192C26.752 66.328 26.416 65.28 26.416 64.048C26.416 62.432 26.944 61.184 28 60.304C29.056 59.408 30.536 58.96 32.44 58.96C33.736 58.96 34.864 59.16 35.824 59.56C36.784 59.96 37.56 60.504 38.152 61.192L36.112 63.472C35.664 62.976 35.136 62.592 34.528 62.32C33.92 62.032 33.232 61.888 32.464 61.888C30.848 61.888 30.04 62.552 30.04 63.88C30.04 64.456 30.216 64.888 30.568 65.176C30.936 65.464 31.528 65.68 32.344 65.824L34.096 66.136C35.456 66.376 36.504 66.888 37.24 67.672C37.976 68.456 38.344 69.512 38.344 70.84C38.344 71.624 38.208 72.352 37.936 73.024C37.664 73.68 37.256 74.256 36.712 74.752C36.168 75.232 35.496 75.608 34.696 75.88C33.912 76.152 32.992 76.288 31.936 76.288ZM41.3106 76V59.248H52.4226V62.2H44.9106V66.04H51.6306V68.992H44.9106V76H41.3106Z" fill="#527244"/>
<path d="M238.824 94V77.248H245.304C246.12 77.248 246.848 77.376 247.488 77.632C248.128 77.872 248.664 78.224 249.096 78.688C249.544 79.152 249.88 79.712 250.104 80.368C250.328 81.024 250.44 81.76 250.44 82.576C250.44 83.392 250.328 84.128 250.104 84.784C249.88 85.44 249.544 86 249.096 86.464C248.664 86.928 248.128 87.288 247.488 87.544C246.848 87.784 246.12 87.904 245.304 87.904H242.448V94H238.824ZM242.448 85H244.392C245.24 85 245.824 84.84 246.144 84.52C246.48 84.2 246.648 83.672 246.648 82.936V82.216C246.648 81.48 246.48 80.952 246.144 80.632C245.824 80.312 245.24 80.152 244.392 80.152H242.448V85ZM260.703 86.992H256.479V94H252.855V77.248H256.479V84.04H260.703V77.248H264.327V94H260.703V86.992ZM267.989 94V77.248H271.613V91.048H278.813V94H267.989Z" fill="#E0EFF2"/>
<path d="M114.584 61.288C112.344 61.288 110.68 60.536 109.592 59.032C108.52 57.512 107.984 55.376 107.984 52.624C107.984 49.872 108.52 47.744 109.592 46.24C110.68 44.72 112.344 43.96 114.584 43.96C115.448 43.96 116.208 44.08 116.864 44.32C117.536 44.544 118.112 44.864 118.592 45.28C119.072 45.696 119.464 46.2 119.768 46.792C120.088 47.384 120.336 48.048 120.512 48.784L117.152 49.6C117.056 49.2 116.944 48.832 116.816 48.496C116.688 48.16 116.52 47.872 116.312 47.632C116.12 47.392 115.872 47.208 115.568 47.08C115.28 46.936 114.928 46.864 114.512 46.864C113.536 46.864 112.84 47.248 112.424 48.016C112.024 48.768 111.824 49.816 111.824 51.16V54.088C111.824 55.432 112.024 56.488 112.424 57.256C112.84 58.008 113.536 58.384 114.512 58.384C115.344 58.384 115.944 58.128 116.312 57.616C116.696 57.104 116.976 56.448 117.152 55.648L120.512 56.464C120.336 57.2 120.088 57.864 119.768 58.456C119.464 59.048 119.072 59.56 118.592 59.992C118.112 60.408 117.536 60.728 116.864 60.952C116.208 61.176 115.448 61.288 114.584 61.288ZM130.703 53.992H126.479V61H122.855V44.248H126.479V51.04H130.703V44.248H134.327V61H130.703V53.992ZM137.581 61V58.336H141.181V46.912H137.581V44.248H148.381V46.912H144.781V58.336H148.381V61H137.581Z" fill="#527244"/>
</svg>
