<svg width="83" height="75" viewBox="0 0 83 75" fill="none" xmlns="http://www.w3.org/2000/svg">
<mask id="path-1-outside-1_34_68" maskUnits="userSpaceOnUse" x="1" y="0.800781" width="81" height="74" fill="black">
<rect fill="white" x="1" y="0.800781" width="81" height="74"/>
<path fill-rule="evenodd" clip-rule="evenodd" d="M31.0404 14.2419C30.7952 13.4607 30.4748 12.6908 30.0764 11.9416C26.5878 5.38053 18.441 2.88978 11.8799 6.37837C5.3188 9.86695 2.82806 18.0138 6.31664 24.5749C7.12779 26.1004 8.19079 27.4059 9.42713 28.4674C5.98453 33.3587 4 39.1117 4 45.2682C4 63.0554 20.5655 71.0617 41 71.0617C61.4345 71.0617 78 63.0554 78 45.2682C78 39.4619 76.2348 34.0145 73.1461 29.3104C74.5511 28.1945 75.7545 26.7778 76.6506 25.0925C80.1392 18.5314 77.6485 10.3845 71.0874 6.89593C64.5263 3.40735 56.3795 5.89809 52.8909 12.4592C52.5348 13.1288 52.2411 13.8149 52.0075 14.511C48.5304 13.5691 44.8333 13.0617 41 13.0617C37.5494 13.0617 34.2092 13.4729 31.0404 14.2419Z"/>
</mask>
<path fill-rule="evenodd" clip-rule="evenodd" d="M31.0404 14.2419C30.7952 13.4607 30.4748 12.6908 30.0764 11.9416C26.5878 5.38053 18.441 2.88978 11.8799 6.37837C5.3188 9.86695 2.82806 18.0138 6.31664 24.5749C7.12779 26.1004 8.19079 27.4059 9.42713 28.4674C5.98453 33.3587 4 39.1117 4 45.2682C4 63.0554 20.5655 71.0617 41 71.0617C61.4345 71.0617 78 63.0554 78 45.2682C78 39.4619 76.2348 34.0145 73.1461 29.3104C74.5511 28.1945 75.7545 26.7778 76.6506 25.0925C80.1392 18.5314 77.6485 10.3845 71.0874 6.89593C64.5263 3.40735 56.3795 5.89809 52.8909 12.4592C52.5348 13.1288 52.2411 13.8149 52.0075 14.511C48.5304 13.5691 44.8333 13.0617 41 13.0617C37.5494 13.0617 34.2092 13.4729 31.0404 14.2419Z" fill="#F3F0C7"/>
<path d="M31.0404 14.2419L28.1782 15.1405L29.0192 17.8196L31.748 17.1573L31.0404 14.2419ZM30.0764 11.9416L27.4276 13.35L27.4276 13.35L30.0764 11.9416ZM11.8799 6.37837L10.4715 3.72953L10.4715 3.72953L11.8799 6.37837ZM6.31664 24.5749L3.6678 25.9833L3.6678 25.9833L6.31664 24.5749ZM9.42713 28.4674L11.8804 30.194L13.4486 27.966L11.3813 26.1912L9.42713 28.4674ZM73.1461 29.3104L71.2803 26.9611L69.134 28.6658L70.6384 30.9569L73.1461 29.3104ZM76.6506 25.0925L74.0018 23.684L74.0018 23.684L76.6506 25.0925ZM71.0874 6.89593L72.4958 4.24709L72.4958 4.24709L71.0874 6.89593ZM52.8909 12.4592L50.242 11.0508L50.242 11.0508L52.8909 12.4592ZM52.0075 14.511L51.2232 17.4066L53.9524 18.1459L54.8518 15.4652L52.0075 14.511ZM33.9027 13.3433C33.6024 12.3868 33.2107 11.4462 32.7252 10.5332L27.4276 13.35C27.7388 13.9354 27.9879 14.5346 28.1782 15.1405L33.9027 13.3433ZM32.7252 10.5332C28.4588 2.5092 18.4955 -0.536907 10.4715 3.72953L13.2883 9.02721C18.3865 6.31647 24.7168 8.25186 27.4276 13.35L32.7252 10.5332ZM10.4715 3.72953C2.44747 7.99596 -0.598631 17.9593 3.6678 25.9833L8.96549 23.1665C6.25475 18.0683 8.19013 11.738 13.2883 9.02721L10.4715 3.72953ZM3.6678 25.9833C4.65723 27.8442 5.95759 29.4426 7.47293 30.7436L11.3813 26.1912C10.424 25.3693 9.59835 24.3567 8.96549 23.1665L3.6678 25.9833ZM7 45.2682C7 39.7747 8.76691 34.6178 11.8804 30.194L6.97384 26.7407C3.20215 32.0996 1 38.4488 1 45.2682H7ZM41 68.0617C31.1078 68.0617 22.4846 66.1134 16.438 62.298C10.5407 58.5769 7 53.0492 7 45.2682H1C1 55.2745 5.74202 62.6435 13.2361 67.3723C20.5809 72.0069 30.4576 74.0617 41 74.0617V68.0617ZM75 45.2682C75 53.0492 71.4593 58.5769 65.562 62.298C59.5154 66.1134 50.8922 68.0617 41 68.0617V74.0617C51.5424 74.0617 61.4191 72.0069 68.7639 67.3723C76.258 62.6435 81 55.2745 81 45.2682H75ZM70.6384 30.9569C73.4278 35.2053 75 40.0857 75 45.2682H81C81 38.8382 79.0418 32.8237 75.6538 27.6638L70.6384 30.9569ZM74.0018 23.684C73.3029 24.9985 72.3685 26.0969 71.2803 26.9611L75.0119 31.6596C76.7337 30.2921 78.2062 28.5571 79.2995 26.5009L74.0018 23.684ZM69.679 9.54478C74.7771 12.2555 76.7125 18.5859 74.0018 23.684L79.2995 26.5009C83.5659 18.4769 80.5198 8.51352 72.4958 4.24709L69.679 9.54478ZM55.5397 13.8676C58.2505 8.76942 64.5808 6.83404 69.679 9.54478L72.4958 4.24709C64.4718 -0.0193405 54.5085 3.02676 50.242 11.0508L55.5397 13.8676ZM54.8518 15.4652C55.033 14.925 55.2615 14.3909 55.5397 13.8676L50.242 11.0508C49.8082 11.8667 49.4492 12.7048 49.1633 13.5568L54.8518 15.4652ZM41 16.0617C44.5683 16.0617 48.0016 16.534 51.2232 17.4066L52.7919 11.6153C49.0591 10.6042 45.0983 10.0617 41 10.0617V16.0617ZM31.748 17.1573C34.6853 16.4444 37.788 16.0617 41 16.0617V10.0617C37.3109 10.0617 33.7331 10.5013 30.3328 11.3266L31.748 17.1573Z" fill="#A89D64" mask="url(#path-1-outside-1_34_68)"/>
<circle cx="18.1965" cy="18.2583" r="13.4548" transform="rotate(-28 18.1965 18.2583)" fill="#F3F0C7"/>
<ellipse cx="17.9293" cy="18.4431" rx="8.10511" ry="8.10511" transform="rotate(-28 17.9293 18.4431)" fill="#CABDF4"/>
<ellipse cx="64.7708" cy="18.7759" rx="13.4548" ry="13.4548" transform="rotate(28 64.7708 18.7759)" fill="#F3F0C7"/>
<ellipse cx="64.8515" cy="18.8612" rx="8.10511" ry="8.10511" transform="rotate(28 64.8515 18.8612)" fill="#CABDF4"/>
<path d="M78 45.2683C78 63.0555 61.4345 71.0618 41 71.0618C20.5655 71.0618 4 63.0555 4 45.2683C4 27.4811 20.5655 13.0618 41 13.0618C61.4345 13.0618 78 27.4811 78 45.2683Z" fill="#F3F0C7"/>
<path fill-rule="evenodd" clip-rule="evenodd" d="M19.2946 67.1687C16.0528 65.7691 13.2076 63.9818 10.8781 61.79C9.32269 58.7708 9.45226 55.5764 11.3778 54.1254C13.6603 52.4054 17.6021 53.7866 20.1821 57.2104C22.7622 60.6342 23.0033 64.8041 20.7208 66.5241C20.2963 66.8439 19.8144 67.0566 19.2946 67.1687Z" fill="#E3A691"/>
<path fill-rule="evenodd" clip-rule="evenodd" d="M62.9651 67.0554C62.4589 66.9413 61.9893 66.7311 61.5745 66.4186C59.292 64.6986 59.5331 60.5287 62.1131 57.1049C64.6932 53.6811 68.635 52.2999 70.9175 54.0199C72.77 55.4159 72.9602 58.4254 71.5869 61.3402C69.2356 63.6783 66.3168 65.5771 62.9651 67.0554Z" fill="#E3A691"/>
<path fill-rule="evenodd" clip-rule="evenodd" d="M49.2732 46.4875C50.8144 43.6519 53.8905 40.9772 57.8984 39.3326C60.6637 38.1978 63.4577 37.7237 65.9389 37.8462C67.5775 40.6577 67.6636 44.3638 65.8536 47.5345C63.22 52.1481 57.5693 53.8814 53.2325 51.4057C51.284 50.2935 49.9323 48.5209 49.2732 46.4875Z" fill="white"/>
<path d="M48.7246 44.0611L49.175 46.5444C54.2188 38.7782 62.5352 37.5892 66.0629 37.9655L65.1622 36.3852C57.056 36.2046 50.8262 41.4272 48.7246 44.0611Z" fill="black" stroke="black" stroke-width="0.5"/>
<path fill-rule="evenodd" clip-rule="evenodd" d="M65.9885 37.9324C67.579 40.7332 67.6451 44.396 65.8536 47.5344C64.8914 49.22 63.5264 50.5212 61.9699 51.373C59.959 50.5124 58.4766 47.5467 58.4766 44.0204C58.4766 41.9185 59.0033 40.0158 59.8547 38.6393C61.955 38.0101 64.0253 37.7548 65.9151 37.845C65.9398 37.8738 65.9642 37.9029 65.9885 37.9324Z" fill="black"/>
<path fill-rule="evenodd" clip-rule="evenodd" d="M33.1925 46.4875C31.6513 43.6519 28.5752 40.9772 24.5673 39.3326C21.802 38.1978 19.008 37.7237 16.5268 37.8462C14.8882 40.6577 14.8021 44.3638 16.6121 47.5345C19.2457 52.1481 24.8964 53.8814 29.2332 51.4057C31.1817 50.2935 32.5334 48.5209 33.1925 46.4875Z" fill="white"/>
<path d="M33.7412 44.0611L33.2909 46.5444C28.247 38.7782 19.9306 37.5892 16.4029 37.9655L17.3036 36.3852C25.4098 36.2046 31.6396 41.4272 33.7412 44.0611Z" fill="black" stroke="black" stroke-width="0.5"/>
<path fill-rule="evenodd" clip-rule="evenodd" d="M25.952 52.4782C27.0814 52.3498 28.195 51.9983 29.2332 51.4056C31.1814 50.2936 32.533 48.5213 33.1922 46.4882C33.1922 46.4879 33.1923 46.4875 33.1923 46.4871C31.8117 43.9474 29.2001 41.5369 25.7904 39.8799C24.5889 41.2573 23.8046 43.5256 23.8046 46.0905C23.8046 48.7686 24.6597 51.1234 25.952 52.4782Z" fill="black"/>
<path d="M42.4343 60.738C42.9075 61.7523 45.2258 63.8968 50.7142 64.3605" stroke="#47463B" stroke-width="2.5" stroke-linecap="round"/>
<path d="M42.4343 60.738C41.9612 61.7523 39.6428 63.8968 34.1545 64.3605" stroke="#47463B" stroke-width="2.5" stroke-linecap="round"/>
<path d="M43.2095 18.9708C46.6875 21.5522 52.8196 28.4443 49.5237 35.3608C46.8662 27.9537 35.4623 24.3082 38.1687 25.2262" stroke="#A89D64" stroke-width="2.5" stroke-linecap="round"/>
<path d="M37.0006 24.7055C39.5333 26.5273 44.0422 31.3323 41.8168 35.9781C39.7803 30.8873 31.566 28.1935 33.5165 28.8688" stroke="#A89D64" stroke-width="2.5" stroke-linecap="round"/>
</svg>
