<svg width="640" height="577" viewBox="0 0 640 577" fill="none" xmlns="http://www.w3.org/2000/svg">
<rect y="84" width="640" height="370" fill="#5B5B5B"/>
<rect x="309" y="435" width="21" height="85" fill="#5B5B5B"/>
<ellipse cx="319.5" cy="544.5" rx="129.5" ry="32.5" fill="#5B5B5B"/>
<rect x="21" y="102" width="600" height="333" fill="#F2E0EA"/>
<rect x="115" y="147" width="387" height="245" rx="10" fill="white"/>
<path d="M115 157C115 151.477 119.477 147 125 147H492C497.523 147 502 151.477 502 157V169H115V157Z" fill="#5B5B5B"/>
<circle cx="129.287" cy="158.43" r="5.71476" fill="#ED6A5E"/>
<circle cx="146.431" cy="158.43" r="5.71476" fill="#F4BE4E"/>
<circle cx="163.575" cy="158.43" r="5.71476" fill="#60C454"/>
<path d="M314.837 30.088C313.685 30.088 312.709 29.968 311.909 29.728C311.109 29.488 310.397 29 309.773 28.264L311.861 26.104C312.245 26.568 312.677 26.896 313.157 27.088C313.653 27.28 314.181 27.376 314.741 27.376C315.189 27.376 315.589 27.328 315.941 27.232C316.293 27.136 316.605 26.952 316.877 26.68C317.165 26.408 317.405 26.032 317.597 25.552C317.789 25.072 317.949 24.456 318.077 23.704L318.437 21.568H318.293C318.069 22.048 317.821 22.488 317.549 22.888C317.293 23.272 317.005 23.608 316.685 23.896C316.365 24.184 315.997 24.408 315.581 24.568C315.165 24.728 314.693 24.808 314.165 24.808C313.493 24.808 312.925 24.688 312.461 24.448C311.997 24.208 311.613 23.872 311.309 23.44C311.005 23.008 310.781 22.504 310.637 21.928C310.509 21.336 310.445 20.696 310.445 20.008C310.445 18.888 310.573 17.856 310.829 16.912C311.085 15.968 311.453 15.16 311.933 14.488C312.429 13.8 313.021 13.272 313.709 12.904C314.413 12.52 315.197 12.328 316.061 12.328C317.069 12.328 317.821 12.56 318.317 13.024C318.813 13.472 319.149 14.104 319.325 14.92H319.517L319.901 12.616H323.405L321.485 24.136C321.149 26.152 320.413 27.648 319.277 28.624C318.157 29.6 316.677 30.088 314.837 30.088ZM315.701 22.072C316.133 22.072 316.509 21.976 316.829 21.784C317.149 21.576 317.453 21.304 317.741 20.968C317.933 20.744 318.149 20.44 318.389 20.056C318.645 19.672 318.821 19.192 318.917 18.616L319.181 17.008C319.277 16.432 319.173 15.96 318.869 15.592C318.581 15.224 318.045 15.04 317.261 15.04C316.365 15.04 315.685 15.312 315.221 15.856C314.757 16.4 314.453 17.104 314.309 17.968L314.141 18.976C314.109 19.12 314.085 19.288 314.069 19.48C314.053 19.672 314.045 19.896 314.045 20.152C314.045 20.68 314.165 21.136 314.405 21.52C314.661 21.888 315.093 22.072 315.701 22.072ZM327.356 25L328.964 15.352H326.132L326.588 12.616H332.924L332.276 16.36H332.42C332.932 15.176 333.58 14.256 334.364 13.6C335.148 12.944 336.148 12.616 337.364 12.616H338.18L337.556 16.12H335.372C334.716 16.12 334.188 16.208 333.788 16.384C333.404 16.56 333.068 16.832 332.78 17.2C332.62 17.392 332.436 17.688 332.228 18.088C332.02 18.488 331.876 18.904 331.796 19.336L330.86 25H327.356ZM346.57 25L347.05 22.048H346.93C346.69 22.528 346.434 22.968 346.162 23.368C345.906 23.752 345.61 24.088 345.274 24.376C344.954 24.664 344.586 24.888 344.17 25.048C343.77 25.208 343.306 25.288 342.778 25.288C342.122 25.288 341.562 25.176 341.098 24.952C340.65 24.728 340.282 24.408 339.994 23.992C339.706 23.56 339.49 23.048 339.346 22.456C339.218 21.864 339.154 21.208 339.154 20.488C339.154 19.256 339.29 18.144 339.562 17.152C339.834 16.144 340.218 15.288 340.714 14.584C341.21 13.864 341.802 13.312 342.49 12.928C343.194 12.528 343.978 12.328 344.842 12.328C345.818 12.328 346.554 12.56 347.05 13.024C347.562 13.472 347.906 14.104 348.082 14.92H348.25L348.634 12.616H352.138L350.074 25H346.57ZM344.338 22.576C344.77 22.576 345.154 22.472 345.49 22.264C345.826 22.056 346.138 21.768 346.426 21.4C346.618 21.176 346.834 20.864 347.074 20.464C347.314 20.048 347.474 19.584 347.554 19.072L347.89 17.08C348.002 16.424 347.898 15.92 347.578 15.568C347.274 15.216 346.738 15.04 345.97 15.04C345.106 15.04 344.442 15.296 343.978 15.808C343.514 16.304 343.202 17.024 343.042 17.968L342.802 19.408C342.77 19.552 342.746 19.72 342.73 19.912C342.714 20.088 342.706 20.28 342.706 20.488C342.722 21.08 342.842 21.576 343.066 21.976C343.306 22.376 343.73 22.576 344.338 22.576ZM359.185 25.288C357.489 25.288 356.201 24.832 355.321 23.92C354.441 23.008 354.001 21.72 354.001 20.056C354.001 19 354.153 18.008 354.457 17.08C354.761 16.136 355.201 15.312 355.777 14.608C356.353 13.904 357.065 13.352 357.913 12.952C358.777 12.536 359.761 12.328 360.865 12.328C362.289 12.328 363.377 12.616 364.129 13.192C364.881 13.768 365.393 14.528 365.665 15.472L362.809 16.816C362.633 16.304 362.393 15.896 362.089 15.592C361.785 15.288 361.281 15.136 360.577 15.136C359.889 15.136 359.305 15.36 358.825 15.808C358.361 16.256 358.057 16.912 357.913 17.776L357.673 19.216C357.641 19.36 357.617 19.536 357.601 19.744C357.585 19.952 357.577 20.152 357.577 20.344C357.577 20.984 357.737 21.504 358.057 21.904C358.393 22.288 358.961 22.48 359.761 22.48C360.017 22.48 360.257 22.456 360.481 22.408C360.705 22.344 360.945 22.216 361.201 22.024C361.473 21.832 361.769 21.568 362.089 21.232C362.425 20.88 362.809 20.416 363.241 19.84L365.425 21.256C365.009 21.912 364.593 22.488 364.177 22.984C363.761 23.48 363.305 23.904 362.809 24.256C362.313 24.592 361.769 24.848 361.177 25.024C360.585 25.2 359.921 25.288 359.185 25.288ZM373.767 25.288C371.927 25.288 370.567 24.824 369.687 23.896C368.807 22.952 368.367 21.656 368.367 20.008C368.367 18.856 368.543 17.808 368.895 16.864C369.247 15.92 369.735 15.112 370.359 14.44C370.999 13.768 371.767 13.248 372.663 12.88C373.559 12.512 374.559 12.328 375.663 12.328C376.287 12.328 376.871 12.4 377.415 12.544C377.975 12.688 378.463 12.904 378.879 13.192C379.295 13.464 379.623 13.816 379.863 14.248C380.103 14.664 380.223 15.16 380.223 15.736C380.223 16.232 380.119 16.728 379.911 17.224C379.703 17.72 379.295 18.176 378.687 18.592C378.095 18.992 377.247 19.336 376.143 19.624C375.055 19.896 373.631 20.064 371.871 20.128C371.855 20.224 371.847 20.304 371.847 20.368C371.847 20.416 371.847 20.472 371.847 20.536C371.847 21.208 372.031 21.72 372.399 22.072C372.767 22.424 373.375 22.6 374.223 22.6C374.559 22.6 374.863 22.568 375.135 22.504C375.423 22.44 375.695 22.328 375.951 22.168C376.223 21.992 376.487 21.776 376.743 21.52C377.015 21.248 377.311 20.904 377.631 20.488L379.815 21.904C379.495 22.368 379.143 22.808 378.759 23.224C378.391 23.624 377.967 23.984 377.487 24.304C377.007 24.608 376.463 24.848 375.855 25.024C375.247 25.2 374.551 25.288 373.767 25.288ZM375.303 14.8C374.535 14.8 373.879 15.032 373.335 15.496C372.791 15.944 372.407 16.704 372.183 17.776L372.111 18.112C373.215 18.048 374.079 17.944 374.703 17.8C375.343 17.656 375.815 17.488 376.119 17.296C376.439 17.104 376.639 16.896 376.719 16.672C376.799 16.448 376.839 16.24 376.839 16.048C376.839 15.216 376.327 14.8 375.303 14.8ZM386.598 30.088C386.118 30.088 385.694 30.008 385.326 29.848C384.958 29.704 384.606 29.48 384.27 29.176C383.95 28.872 383.63 28.504 383.31 28.072C382.99 27.64 382.646 27.136 382.278 26.56L381.51 25.36L383.91 23.704L386.622 27.424L386.934 27.304L388.926 15.352H384.39L384.846 12.616H392.886L390.678 25.888C390.422 27.392 389.966 28.464 389.31 29.104C388.654 29.76 387.75 30.088 386.598 30.088ZM391.542 10.984C390.822 10.984 390.31 10.848 390.006 10.576C389.718 10.288 389.574 9.936 389.574 9.52C389.574 9.44 389.582 9.336 389.598 9.208C389.614 9.064 389.646 8.848 389.694 8.56C389.774 8.048 389.99 7.656 390.342 7.384C390.694 7.112 391.23 6.976 391.95 6.976C392.67 6.976 393.174 7.12 393.462 7.408C393.766 7.68 393.918 8.024 393.918 8.44C393.918 8.52 393.91 8.632 393.894 8.776C393.878 8.904 393.846 9.112 393.798 9.4C393.718 9.912 393.502 10.304 393.15 10.576C392.798 10.848 392.262 10.984 391.542 10.984ZM403.941 10.984C403.221 10.984 402.709 10.848 402.405 10.576C402.117 10.288 401.973 9.936 401.973 9.52C401.973 9.44 401.981 9.336 401.997 9.208C402.013 9.064 402.045 8.848 402.093 8.56C402.173 8.048 402.389 7.656 402.741 7.384C403.093 7.112 403.629 6.976 404.349 6.976C405.069 6.976 405.573 7.12 405.861 7.408C406.165 7.68 406.317 8.024 406.317 8.44C406.317 8.52 406.309 8.632 406.293 8.776C406.277 8.904 406.245 9.112 406.197 9.4C406.117 9.912 405.901 10.304 405.549 10.576C405.197 10.848 404.661 10.984 403.941 10.984ZM402.957 25.288C401.965 25.288 401.221 25.032 400.725 24.52C400.229 23.992 399.981 23.288 399.981 22.408C399.981 22.136 399.997 21.872 400.029 21.616C400.061 21.36 400.125 20.984 400.221 20.488L401.181 15.352H397.437L397.893 12.616H405.189L403.341 22.456L403.749 22.576L407.109 19.144L409.029 20.848L407.565 22.528C406.749 23.44 405.981 24.128 405.261 24.592C404.557 25.056 403.789 25.288 402.957 25.288ZM418.523 25L419.003 22.048H418.883C418.643 22.528 418.387 22.968 418.115 23.368C417.859 23.752 417.563 24.088 417.227 24.376C416.907 24.664 416.539 24.888 416.123 25.048C415.723 25.208 415.259 25.288 414.731 25.288C414.075 25.288 413.515 25.176 413.051 24.952C412.603 24.728 412.235 24.408 411.947 23.992C411.659 23.56 411.443 23.048 411.299 22.456C411.171 21.864 411.107 21.208 411.107 20.488C411.107 19.256 411.243 18.144 411.515 17.152C411.787 16.144 412.171 15.288 412.667 14.584C413.163 13.864 413.755 13.312 414.443 12.928C415.147 12.528 415.931 12.328 416.795 12.328C417.771 12.328 418.507 12.56 419.003 13.024C419.515 13.472 419.859 14.104 420.035 14.92H420.203L420.587 12.616H424.091L422.027 25H418.523ZM416.291 22.576C416.723 22.576 417.107 22.472 417.443 22.264C417.779 22.056 418.091 21.768 418.379 21.4C418.571 21.176 418.787 20.864 419.027 20.464C419.267 20.048 419.427 19.584 419.507 19.072L419.843 17.08C419.955 16.424 419.851 15.92 419.531 15.568C419.227 15.216 418.691 15.04 417.923 15.04C417.059 15.04 416.395 15.296 415.931 15.808C415.467 16.304 415.155 17.024 414.995 17.968L414.755 19.408C414.723 19.552 414.699 19.72 414.683 19.912C414.667 20.088 414.659 20.28 414.659 20.488C414.675 21.08 414.795 21.576 415.019 21.976C415.259 22.376 415.683 22.576 416.291 22.576ZM425.186 25L427.25 12.616H430.754L430.274 15.568H430.394C430.858 14.56 431.394 13.768 432.002 13.192C432.626 12.616 433.434 12.328 434.426 12.328C435.034 12.328 435.546 12.424 435.962 12.616C436.394 12.808 436.746 13.072 437.018 13.408C437.29 13.728 437.49 14.104 437.618 14.536C437.746 14.968 437.81 15.424 437.81 15.904C437.81 16.256 437.786 16.616 437.738 16.984C437.706 17.352 437.642 17.824 437.546 18.4L436.442 25H432.938L434.114 17.968C434.146 17.744 434.178 17.52 434.21 17.296C434.258 17.056 434.282 16.784 434.282 16.48C434.282 16.32 434.258 16.152 434.21 15.976C434.162 15.8 434.082 15.64 433.97 15.496C433.858 15.352 433.706 15.24 433.514 15.16C433.338 15.064 433.114 15.016 432.842 15.016C432.426 15.016 432.066 15.112 431.762 15.304C431.458 15.496 431.17 15.776 430.898 16.144C430.722 16.384 430.506 16.72 430.25 17.152C430.01 17.568 429.85 18.032 429.77 18.544L428.69 25H425.186ZM444.353 30.088C443.201 30.088 442.225 29.968 441.425 29.728C440.625 29.488 439.913 29 439.289 28.264L441.377 26.104C441.761 26.568 442.193 26.896 442.673 27.088C443.169 27.28 443.697 27.376 444.257 27.376C444.705 27.376 445.105 27.328 445.457 27.232C445.809 27.136 446.121 26.952 446.393 26.68C446.681 26.408 446.921 26.032 447.113 25.552C447.305 25.072 447.465 24.456 447.593 23.704L447.953 21.568H447.809C447.585 22.048 447.337 22.488 447.065 22.888C446.809 23.272 446.521 23.608 446.201 23.896C445.881 24.184 445.513 24.408 445.097 24.568C444.681 24.728 444.209 24.808 443.681 24.808C443.009 24.808 442.441 24.688 441.977 24.448C441.513 24.208 441.129 23.872 440.825 23.44C440.521 23.008 440.297 22.504 440.153 21.928C440.025 21.336 439.961 20.696 439.961 20.008C439.961 18.888 440.089 17.856 440.345 16.912C440.601 15.968 440.969 15.16 441.449 14.488C441.945 13.8 442.537 13.272 443.225 12.904C443.929 12.52 444.713 12.328 445.577 12.328C446.585 12.328 447.337 12.56 447.833 13.024C448.329 13.472 448.665 14.104 448.841 14.92H449.033L449.417 12.616H452.921L451.001 24.136C450.665 26.152 449.929 27.648 448.793 28.624C447.673 29.6 446.193 30.088 444.353 30.088ZM445.217 22.072C445.649 22.072 446.025 21.976 446.345 21.784C446.665 21.576 446.969 21.304 447.257 20.968C447.449 20.744 447.665 20.44 447.905 20.056C448.161 19.672 448.337 19.192 448.433 18.616L448.697 17.008C448.793 16.432 448.689 15.96 448.385 15.592C448.097 15.224 447.561 15.04 446.777 15.04C445.881 15.04 445.201 15.312 444.737 15.856C444.273 16.4 443.969 17.104 443.825 17.968L443.657 18.976C443.625 19.12 443.601 19.288 443.585 19.48C443.569 19.672 443.561 19.896 443.561 20.152C443.561 20.68 443.681 21.136 443.921 21.52C444.177 21.888 444.609 22.072 445.217 22.072ZM459.487 25.288C458.687 25.288 458.119 25.136 457.783 24.832C457.447 24.512 457.279 24.128 457.279 23.68C457.279 23.44 457.327 23.032 457.423 22.456C457.503 21.944 457.759 21.496 458.191 21.112C458.639 20.728 459.303 20.536 460.183 20.536C460.983 20.536 461.551 20.696 461.887 21.016C462.223 21.32 462.391 21.696 462.391 22.144C462.391 22.384 462.343 22.792 462.247 23.368C462.167 23.88 461.903 24.328 461.455 24.712C461.023 25.096 460.367 25.288 459.487 25.288ZM467.47 25L469.534 12.616H472.366L472.006 14.776H472.15C472.422 14.056 472.782 13.472 473.23 13.024C473.678 12.56 474.23 12.328 474.886 12.328C475.526 12.328 476.014 12.536 476.35 12.952C476.702 13.352 476.838 13.96 476.758 14.776H476.878C477.022 14.424 477.19 14.104 477.382 13.816C477.574 13.512 477.79 13.256 478.03 13.048C478.27 12.824 478.534 12.648 478.822 12.52C479.126 12.392 479.47 12.328 479.854 12.328C481.262 12.328 481.966 13.096 481.966 14.632C481.966 14.904 481.95 15.208 481.918 15.544C481.886 15.864 481.846 16.168 481.798 16.456L480.382 25H477.55L478.918 16.816C478.95 16.672 478.974 16.512 478.99 16.336C479.006 16.16 479.014 15.992 479.014 15.832C479.014 15.544 478.95 15.32 478.822 15.16C478.71 14.984 478.542 14.896 478.318 14.896C478.11 14.896 477.91 14.952 477.718 15.064C477.542 15.16 477.366 15.36 477.19 15.664C477.046 15.904 476.926 16.168 476.83 16.456C476.75 16.728 476.67 17.08 476.59 17.512L475.342 25H472.51L473.878 16.816C473.91 16.672 473.934 16.512 473.95 16.336C473.966 16.16 473.974 15.984 473.974 15.808C473.974 15.2 473.742 14.896 473.278 14.896C473.102 14.896 472.918 14.944 472.726 15.04C472.55 15.136 472.366 15.344 472.174 15.664C471.998 15.936 471.862 16.208 471.766 16.48C471.686 16.752 471.63 17 471.598 17.224L470.302 25H467.47ZM488.892 25.288C487.052 25.288 485.692 24.824 484.812 23.896C483.932 22.952 483.492 21.656 483.492 20.008C483.492 18.856 483.668 17.808 484.02 16.864C484.372 15.92 484.86 15.112 485.484 14.44C486.124 13.768 486.892 13.248 487.788 12.88C488.684 12.512 489.684 12.328 490.788 12.328C491.412 12.328 491.996 12.4 492.54 12.544C493.1 12.688 493.588 12.904 494.004 13.192C494.42 13.464 494.748 13.816 494.988 14.248C495.228 14.664 495.348 15.16 495.348 15.736C495.348 16.232 495.244 16.728 495.036 17.224C494.828 17.72 494.42 18.176 493.812 18.592C493.22 18.992 492.372 19.336 491.268 19.624C490.18 19.896 488.756 20.064 486.996 20.128C486.98 20.224 486.972 20.304 486.972 20.368C486.972 20.416 486.972 20.472 486.972 20.536C486.972 21.208 487.156 21.72 487.524 22.072C487.892 22.424 488.5 22.6 489.348 22.6C489.684 22.6 489.988 22.568 490.26 22.504C490.548 22.44 490.82 22.328 491.076 22.168C491.348 21.992 491.612 21.776 491.868 21.52C492.14 21.248 492.436 20.904 492.756 20.488L494.94 21.904C494.62 22.368 494.268 22.808 493.884 23.224C493.516 23.624 493.092 23.984 492.612 24.304C492.132 24.608 491.588 24.848 490.98 25.024C490.372 25.2 489.676 25.288 488.892 25.288ZM490.428 14.8C489.66 14.8 489.004 15.032 488.46 15.496C487.916 15.944 487.532 16.704 487.308 17.776L487.236 18.112C488.34 18.048 489.204 17.944 489.828 17.8C490.468 17.656 490.94 17.488 491.244 17.296C491.564 17.104 491.764 16.896 491.844 16.672C491.924 16.448 491.964 16.24 491.964 16.048C491.964 15.216 491.452 14.8 490.428 14.8Z" fill="#5B5B5B"/>
</svg>
