<svg width="177" height="272" viewBox="0 0 177 272" fill="none" xmlns="http://www.w3.org/2000/svg">
<ellipse cx="81.75" cy="154" rx="72.75" ry="12" fill="#463619"/>
<path d="M11.3907 127.044C23.9939 172.122 64.3816 172.077 83 166.42C35.6424 122.971 8.52631 86.7632 0.887991 74.0906C-0.862458 72.9591 -1.21255 81.9657 11.3907 127.044Z" fill="#68842A"/>
<path d="M22.0313 92.1696C23.3178 136.053 52.7029 161.288 67.2347 168.421C74.3196 172.536 82.5886 165.738 58.985 105.63C35.3814 45.5225 15.3271 38.048 8.25036 41.8242C12.308 40.3214 20.7449 48.2865 22.0313 92.1696Z" fill="#779047"/>
<path d="M126.157 119.155C95.5596 134.414 87.1218 170.576 86.7275 186.75C86.0851 194.839 93.5319 200.572 128.459 158.789C163.386 117.006 162.257 95.4426 157.326 89.8838C159.685 93.2828 156.754 103.896 126.157 119.155Z" fill="#68842A"/>
<path d="M144.474 39.8133C113.716 41.9877 80.4854 127.282 67.7151 169.657C94.5534 199.744 139.255 86.4113 138.421 69.2198C137.755 55.4666 142.179 43.885 144.474 39.8133Z" fill="#779047"/>
<path d="M66.7536 43.5115C45.4667 80.1078 57.8841 150.618 66.7536 181.299C80.4381 194.967 86.3933 175.604 87.6604 164.213C115.029 54.4242 100.49 16.6889 84.8095 5.48217C59.6263 -9.39874 88.0405 6.91518 66.7536 43.5115Z" fill="#9BB36D"/>
<path fill-rule="evenodd" clip-rule="evenodd" d="M81.75 166C121.929 166 154.5 160.627 154.5 154C154.5 153.906 154.494 153.813 154.481 153.72H154.589C155.423 181.319 150.789 242.392 125.589 265.895L125.589 265.895C125.589 269.267 106.002 272 81.8395 272C57.677 272 38.0895 269.267 38.0895 265.895L38.0895 265.895C13.1301 242.616 8.34651 182.482 9.0671 154.52C10.718 160.906 42.6277 166 81.75 166Z" fill="#917863"/>
</svg>
